<?xml version="1.0" encoding="UTF-8"?>
<svg version="1.1" xmlns="http://www.w3.org/2000/svg" width="1080" height="1080">
<path d="M0 0 C2.12024639 0.00564913 4.24048475 0.00846397 6.36073685 0.0110817 C26.91536786 0.04796432 47.19418982 0.49540989 67.58604813 3.31805801 C68.94240035 3.49747407 70.2988493 3.67616013 71.65538406 3.85419083 C141.42569723 13.10425742 209.4940548 35.15728228 270.58604813 70.31805801 C271.42538895 70.80097305 272.26472977 71.28388809 273.12950516 71.78143692 C297.99727483 86.19579151 321.72607487 102.51965973 343.8419075 120.87811661 C346.2977155 122.90560199 348.78927681 124.88811498 351.27354813 126.88055801 C356.54159108 131.19149407 361.5149712 135.788074 366.48448563 140.43524551 C369.03844329 142.82173054 371.64451641 145.13926734 374.27354813 147.44305801 C379.27095242 151.92263916 384.02073279 156.643587 388.77354813 161.38055801 C389.91473099 162.51485245 389.91473099 162.51485245 391.07896805 163.67206192 C395.23450863 167.83893785 399.22477907 172.09233006 403.06480789 176.55170059 C404.98752613 178.7842261 406.9731484 180.95605467 408.96104813 183.13055801 C413.69123166 188.38010292 418.1706234 193.8024202 422.58604813 199.31805801 C423.00080399 199.83319962 423.41555984 200.34834122 423.84288406 200.87909317 C484.07004838 275.81183673 523.54897561 366.00826179 538.83604813 468.69305801 C538.98727127 469.79496475 539.13849442 470.89687149 539.29430008 472.03216934 C539.77610371 475.78947593 540.19991809 479.54995613 540.58604813 483.31805801 C540.71685272 484.59078568 540.71685272 484.59078568 540.85029984 485.88922501 C542.56307897 503.16506915 542.95108768 520.38233431 542.90410614 537.73200989 C542.89845701 539.85225628 542.89564217 541.97249464 542.89302444 544.09274673 C542.85614182 564.64737775 542.40869625 584.92619971 539.58604813 605.31805801 C539.40663207 606.67441024 539.22794601 608.03085919 539.04991531 609.38739395 C529.79984872 679.15770712 507.74682386 747.22606469 472.58604813 808.31805801 C471.86167557 809.57706924 471.86167557 809.57706924 471.12266922 810.86151505 C456.70831463 835.72928472 440.38444641 859.45808476 422.02598953 881.57391739 C419.99850415 884.02972539 418.01599116 886.5212867 416.02354813 889.00555801 C411.71261207 894.27360097 407.11603214 899.24698109 402.46886063 904.21649551 C400.0823756 906.77045318 397.7648388 909.3765263 395.46104813 912.00555801 C390.98146698 917.0029623 386.26051914 921.75274268 381.52354813 926.50555801 C380.76735184 927.26634659 380.01115555 928.02713516 379.23204422 928.81097794 C375.06516829 932.96651851 370.81177608 936.95678896 366.35240555 940.79681778 C364.11988004 942.71953601 361.94805147 944.70515829 359.77354813 946.69305801 C354.52400322 951.42324155 349.10168594 955.90263329 343.58604813 960.31805801 C343.07090652 960.73281387 342.55576492 961.14756973 342.02501297 961.57489395 C267.09226941 1021.80205827 176.89584435 1061.2809855 74.21104813 1076.56805801 C72.55818802 1076.79489273 72.55818802 1076.79489273 70.8719368 1077.02630997 C67.11463021 1077.5081136 63.35415001 1077.93192798 59.58604813 1078.31805801 C58.31332047 1078.44886261 58.31332047 1078.44886261 57.01488113 1078.58230972 C39.73903699 1080.29508885 22.52177183 1080.68309757 5.17209625 1080.63611603 C3.05184986 1080.6304669 0.9316115 1080.62765205 -1.18864059 1080.62503433 C-21.74327161 1080.58815171 -42.02209357 1080.14070614 -62.41395187 1077.31805801 C-63.7703041 1077.13864196 -65.12675305 1076.9599559 -66.48328781 1076.7819252 C-136.25360098 1067.53185861 -204.32195855 1045.47883375 -265.41395187 1010.31805801 C-266.6729631 1009.59368546 -266.6729631 1009.59368546 -267.95740891 1008.85467911 C-292.82517858 994.44032452 -316.55397862 978.11645629 -338.66981125 959.75799942 C-341.12561925 957.73051404 -343.61718056 955.74800105 -346.10145187 953.75555801 C-351.36949483 949.44462196 -356.34287495 944.84804203 -361.31238937 940.20087051 C-363.86634704 937.81438549 -366.47242016 935.49684869 -369.10145187 933.19305801 C-374.09885616 928.71347687 -378.84863654 923.99252903 -383.60145187 919.25555801 C-384.74263474 918.12126358 -384.74263474 918.12126358 -385.9068718 916.96405411 C-390.06241237 912.79717818 -394.05268282 908.54378597 -397.89271164 904.08441544 C-399.81542987 901.85188993 -401.80105215 899.68006136 -403.78895187 897.50555801 C-408.51913541 892.25601311 -412.99852715 886.83369583 -417.41395187 881.31805801 C-417.82870773 880.80291641 -418.24346359 880.28777481 -418.67078781 879.75702286 C-478.89795213 804.82427929 -518.37687936 714.62785423 -533.66395187 611.94305801 C-533.81517502 610.84115128 -533.96639816 609.73924454 -534.12220383 608.60394669 C-534.60400746 604.84664009 -535.02782184 601.0861599 -535.41395187 597.31805801 C-535.54475647 596.04533035 -535.54475647 596.04533035 -535.67820358 594.74689102 C-537.39098271 577.47104688 -537.77899143 560.25378172 -537.73200989 542.90410614 C-537.72636076 540.78385975 -537.72354591 538.66362139 -537.72092819 536.54336929 C-537.68404557 515.98873828 -537.2366 495.70991632 -534.41395187 475.31805801 C-534.23453582 473.96170579 -534.05584976 472.60525684 -533.87781906 471.24872208 C-524.62775247 401.47840891 -502.57472761 333.41005134 -467.41395187 272.31805801 C-466.93103683 271.47871719 -466.4481218 270.63937637 -465.95057297 269.77460098 C-451.53621838 244.90683131 -435.21235015 221.17803127 -416.85389328 199.06219864 C-414.8264079 196.60639064 -412.84389491 194.11482933 -410.85145187 191.63055801 C-406.54051582 186.36251506 -401.94393589 181.38913494 -397.29676437 176.41962051 C-394.91027935 173.86566285 -392.59274255 171.25958973 -390.28895187 168.63055801 C-385.80937073 163.63315372 -381.08842289 158.88337335 -376.35145187 154.13055801 C-375.59525558 153.36976944 -374.8390593 152.60898087 -374.05994797 151.82513809 C-369.89307203 147.66959751 -365.63967983 143.67932707 -361.1803093 139.83929825 C-358.94778379 137.91658001 -356.77595522 135.93095774 -354.60145187 133.94305801 C-349.35190697 129.21287448 -343.92958969 124.73348274 -338.41395187 120.31805801 C-337.89881027 119.90330215 -337.38366867 119.4885463 -336.85291672 119.06122208 C-261.92017315 58.83405776 -171.72374809 19.35513053 -69.03895187 4.06805801 C-67.93704514 3.91683487 -66.8351384 3.76561172 -65.69984055 3.60980606 C-61.94253395 3.12800243 -58.18205376 2.70418805 -54.41395187 2.31805801 C-53.56546677 2.23085495 -52.71698166 2.14365189 -51.84278488 2.0538063 C-34.56694074 0.34102717 -17.34967558 -0.04698154 0 0 Z " fill="#D6FDE8" transform="translate(537.4139518737793,-0.3180580139160156)"/>
<path d="M0 0 C2.44664394 1.31002167 4.86610444 2.62770799 7.25024414 4.04882812 C8.15000977 4.58290283 9.04977539 5.11697754 9.97680664 5.66723633 C10.92555664 6.23531006 11.87430664 6.80338379 12.85180664 7.38867188 C14.32520508 8.26495239 14.32520508 8.26495239 15.82836914 9.15893555 C20.14730733 11.7300181 24.45897779 14.31309136 28.76586914 16.90429688 C29.40218262 17.28706787 30.03849609 17.66983887 30.6940918 18.06420898 C32.33162853 19.05117134 33.96683311 20.04200042 35.60180664 21.03320312 C41.5190263 24.53462242 47.50714249 27.91493522 53.47680664 31.32617188 C53.47680664 52.77617188 53.47680664 74.22617187 53.47680664 96.32617188 C45.22680664 100.94617188 36.97680664 105.56617188 28.47680664 110.32617188 C19.77498253 115.43747226 19.77498253 115.43747226 11.09399414 120.58398438 C9.90628418 121.28442871 9.90628418 121.28442871 8.69458008 121.99902344 C7.2772115 122.84719776 5.87247925 123.71710264 4.4855957 124.61425781 C0.07967011 127.38783187 0.07967011 127.38783187 -2.91259766 127.08178711 C-5.69514144 126.27640293 -7.95254399 125.20545784 -10.48803711 123.80664062 C-11.44250732 123.28457031 -12.39697754 122.7625 -13.38037109 122.22460938 C-14.39687744 121.66 -15.41338379 121.09539062 -16.46069336 120.51367188 C-17.51522705 119.93488281 -18.56976074 119.35609375 -19.65625 118.75976562 C-21.85418645 117.55317114 -24.05070252 116.34398595 -26.24584961 115.13232422 C-30.36541659 112.86202054 -34.49685394 110.61392762 -38.62890625 108.36645508 C-41.3121392 106.90697438 -43.99444843 105.44583768 -46.67553711 103.98242188 C-47.39733154 103.58861328 -48.11912598 103.19480469 -48.86279297 102.7890625 C-52.7568089 100.64783616 -56.63852947 98.48431848 -60.52319336 96.32617188 C-60.52319336 74.87617187 -60.52319336 53.42617188 -60.52319336 31.32617188 C-48.64319336 24.89117187 -48.64319336 24.89117187 -36.52319336 18.32617188 C-32.40844721 16.02844611 -28.30092843 13.72817419 -24.21069336 11.38867188 C-21.53788476 9.86492118 -18.86433115 8.3433701 -16.1809082 6.83837891 C-14.30043214 5.76841118 -12.43759774 4.667157 -10.58813477 3.54443359 C-9.62439941 2.97611816 -8.66066406 2.40780273 -7.66772461 1.82226562 C-6.80123291 1.29689209 -5.93474121 0.77151855 -5.04199219 0.23022461 C-2.52319336 -0.67382812 -2.52319336 -0.67382812 0 0 Z " fill="#222222" transform="translate(414.523193359375,476.673828125)"/>
<path d="M0 0 C2.10804823 1.27242551 4.19014225 2.58845586 6.25 3.9375 C7.41140758 4.63553269 8.57691545 5.32678129 9.74609375 6.01171875 C12.2610586 7.48895375 14.76081084 8.98753557 17.25 10.5078125 C21.45337198 13.0702848 25.69190122 15.57077833 29.9375 18.0625 C30.58936279 18.44567383 31.24122559 18.82884766 31.9128418 19.22363281 C32.88991089 19.79742676 32.88991089 19.79742676 33.88671875 20.3828125 C34.51950745 20.77197342 35.15229614 21.16113434 35.80426025 21.56208801 C38.29229012 23.0237747 38.29229012 23.0237747 41.25990295 24.19432068 C44.75008384 25.804458 47.41364932 27.33042762 50.25 29.9375 C51.91153494 34.87827213 51.65643026 39.69654227 51.421875 44.83984375 C51.39946506 46.28708327 51.38239686 47.73441447 51.37042236 49.18177795 C51.32481103 52.97368124 51.20717118 56.75998006 51.07397461 60.54968262 C50.95073403 64.42362624 50.89631223 68.29848521 50.8359375 72.17382812 C50.7076152 79.76426187 50.50311605 87.350093 50.25 94.9375 C49.4983683 95.35310936 49.4983683 95.35310936 48.73155212 95.77711487 C46.41289659 97.05998924 44.09511797 98.34444032 41.77734375 99.62890625 C40.98952515 100.06448853 40.20170654 100.5000708 39.39001465 100.94885254 C34.15385816 103.85245381 28.96733755 106.82956739 23.8125 109.875 C23.08878204 110.30093948 22.36506409 110.72687897 21.61941528 111.16572571 C17.77318352 113.42958374 13.94932986 115.72683928 10.13671875 118.046875 C8.42462695 119.07316325 6.71239034 120.09920995 5 121.125 C3.80225952 121.86641235 3.80225952 121.86641235 2.58032227 122.62280273 C1.82678467 123.07083252 1.07324707 123.5188623 0.296875 123.98046875 C-0.36473633 124.38289795 -1.02634766 124.78532715 -1.70800781 125.19995117 C-4.45815259 126.19327821 -5.97330012 125.78944807 -8.75 124.9375 C-11.06396484 123.82104492 -11.06396484 123.82104492 -13.4609375 122.41796875 C-14.36505371 121.89589844 -15.26916992 121.37382812 -16.20068359 120.8359375 C-17.16570801 120.27132812 -18.13073242 119.70671875 -19.125 119.125 C-28.28762984 113.84807738 -37.54581678 108.82386104 -46.94677734 103.98510742 C-47.8383252 103.52595947 -48.72987305 103.06681152 -49.6484375 102.59375 C-50.41849121 102.19994141 -51.18854492 101.80613281 -51.98193359 101.40039062 C-55.93867664 99.30929834 -59.83786711 97.11090716 -63.75 94.9375 C-63.75 73.4875 -63.75 52.0375 -63.75 29.9375 C-51.87 23.5025 -51.87 23.5025 -39.75 16.9375 C-35.63525385 14.63977423 -31.52773507 12.33950231 -27.4375 10 C-24.76396455 8.47583493 -22.08976773 6.95387333 -19.40478516 5.44995117 C-17.53183713 4.38291852 -15.67881765 3.28053094 -13.84130859 2.15356445 C-12.88434082 1.58468506 -11.92737305 1.01580566 -10.94140625 0.4296875 C-10.08361572 -0.09641113 -9.2258252 -0.62250977 -8.34204102 -1.16455078 C-4.85413242 -2.37285141 -3.27355232 -1.55482069 0 0 Z " fill="#222222" transform="translate(675.75,339.0625)"/>
<path d="M0 0 C1.29964945 0.70811303 2.58159043 1.44969702 3.84375 2.22265625 C4.58189941 2.67084717 5.32004883 3.11903809 6.08056641 3.58081055 C7.27818604 4.31424683 7.27818604 4.31424683 8.5 5.0625 C17.49560662 10.51742898 26.54740611 15.87065969 35.625 21.1875 C36.27509033 21.56875031 36.92518066 21.95000061 37.5949707 22.34280396 C39.45087078 23.4311531 41.30733918 24.51852478 43.1640625 25.60546875 C44.24123535 26.23606201 45.3184082 26.86665527 46.42822266 27.51635742 C47.93045233 28.38298451 49.44881039 29.2244052 51 30 C51 51.45 51 72.9 51 95 C41.76 100.28 32.52 105.56 23 111 C14.13609854 116.23333807 14.13609854 116.23333807 5.31445312 121.53710938 C4.28384766 122.14490234 3.25324219 122.75269531 2.19140625 123.37890625 C1.30654541 123.9107251 0.42168457 124.44254395 -0.48999023 124.99047852 C-3.57871088 126.23275649 -4.864727 126.04347227 -8 125 C-9.87843569 124.12720018 -11.72479858 123.1836549 -13.54296875 122.19140625 C-15.14096313 121.32515625 -15.14096313 121.32515625 -16.77124023 120.44140625 C-17.89860596 119.82136719 -19.02597168 119.20132813 -20.1875 118.5625 C-21.35918237 117.9239761 -22.53114106 117.28595901 -23.70336914 116.6484375 C-31.79559003 112.23998724 -39.86174034 107.78314248 -47.90234375 103.28125 C-51.17517534 101.45149878 -54.46360143 99.6515205 -57.75610352 97.85742188 C-58.74006607 97.32113159 -59.72402863 96.78484131 -60.73780823 96.2322998 C-61.48433151 95.82564087 -62.2308548 95.41898193 -63 95 C-63.1855359 86.74202216 -63.32758908 78.4849176 -63.41449738 70.22536945 C-63.45621488 66.38981222 -63.51276959 62.55568267 -63.60351562 58.72094727 C-63.69058066 55.01850106 -63.73830002 51.31742563 -63.75901794 47.61403465 C-63.77377655 46.20286661 -63.80260068 44.79177199 -63.84584045 43.38118935 C-64.1708638 32.33673519 -64.1708638 32.33673519 -61.32575989 29.08857727 C-59.26066407 27.77811484 -57.28317327 26.86443626 -55 26 C-54.18233154 25.51088135 -53.36466309 25.0217627 -52.5222168 24.51782227 C-51.83812744 24.12135498 -51.15403809 23.7248877 -50.44921875 23.31640625 C-49.67457275 22.86716797 -48.89992676 22.41792969 -48.10180664 21.95507812 C-47.30508545 21.49552734 -46.50836426 21.03597656 -45.6875 20.5625 C-44.84501709 20.07587891 -44.00253418 19.58925781 -43.13452148 19.08789062 C-38.15533521 16.21987933 -33.16575266 13.38182132 -28.08984375 10.6875 C-25.38534762 9.21045534 -22.72669159 7.67952504 -20.06640625 6.125 C-18.72630493 5.35542969 -18.72630493 5.35542969 -17.35913086 4.5703125 C-15.56128709 3.53774431 -13.77138516 2.49120094 -11.99047852 1.4296875 C-11.16088623 0.95789063 -10.33129395 0.48609375 -9.4765625 0 C-8.73486816 -0.433125 -7.99317383 -0.86625 -7.22900391 -1.3125 C-4.15792692 -2.25972375 -2.81084603 -1.44391247 0 0 Z " fill="#222222" transform="translate(675,617)"/>
<path d="M0 0 C1.72422401 0.96006964 3.42772408 1.95793495 5.11328125 2.984375 C6.10320068 3.58362793 7.09312012 4.18288086 8.11303711 4.80029297 C9.16885986 5.44369629 10.22468262 6.08709961 11.3125 6.75 C13.54873098 8.10280005 15.78573168 9.45432841 18.0234375 10.8046875 C18.59491013 11.14972321 19.16638275 11.49475891 19.75517273 11.85025024 C25.94864923 15.58340702 32.18848777 19.23557527 38.4375 22.875 C39.46721924 23.47538086 40.49693848 24.07576172 41.55786133 24.69433594 C46.22427717 27.44744643 46.22427717 27.44744643 51 30 C51 51.45 51 72.9 51 95 C42.75 99.62 34.5 104.24 26 109 C17.52778838 114.04146479 17.52778838 114.04146479 9.10595703 119.16601562 C7.20357528 120.33274611 5.29063236 121.48019178 3.375 122.625 C2.26898437 123.29789063 1.16296875 123.97078125 0.0234375 124.6640625 C-3.4605591 126.20350286 -4.42792935 126.00019325 -8 125 C-10.20629883 123.99121094 -10.20629883 123.99121094 -12.45703125 122.734375 C-13.31079346 122.26265869 -14.16455566 121.79094238 -15.04418945 121.30493164 C-15.95773193 120.7918042 -16.87127441 120.27867676 -17.8125 119.75 C-19.78095478 118.65962312 -21.74971618 117.56979963 -23.71875 116.48046875 C-24.74355469 115.91118652 -25.76835938 115.3419043 -26.82421875 114.75537109 C-32.13357466 111.82069482 -37.4740232 108.94375445 -42.8125 106.0625 C-44.75682722 105.01230506 -46.70085142 103.96154888 -48.64453125 102.91015625 C-49.46284424 102.46808838 -50.28115723 102.02602051 -51.12426758 101.57055664 C-55.09478531 99.40209238 -59.04524753 97.19708471 -63 95 C-63 73.55 -63 52.1 -63 30 C-54.42 25.38 -45.84 20.76 -37 16 C-30.27883098 12.08646263 -30.27883098 12.08646263 -23.5859375 8.125 C-18.80378593 5.27150519 -13.92880959 2.59134571 -9 0 C-8.34644531 -0.4228125 -7.69289063 -0.845625 -7.01953125 -1.28125 C-4.10168121 -2.31971114 -2.77746603 -1.26990017 0 0 Z " fill="#222222" transform="translate(675,478)"/>
<path d="M0 0 C2.99518087 1.5986662 5.91308614 3.29607128 8.80322266 5.07519531 C10.13211797 5.88336204 11.46158165 6.69059464 12.79150391 7.49707031 C13.5167627 7.93728516 14.24202148 8.3775 14.98925781 8.83105469 C19.46942939 11.53001977 23.98316895 14.17231614 28.49072266 16.82519531 C51.49278295 30.38975561 51.49278295 30.38975561 53.36572266 32.26269531 C53.45977407 34.25701261 53.48315515 36.25469074 53.47924805 38.2512207 C53.47913475 40.17309959 53.47913475 40.17309959 53.47901917 42.13380432 C53.47391175 43.54265379 53.46869574 44.95150287 53.46337891 46.36035156 C53.46151468 47.79381766 53.4600908 49.22728439 53.45909119 50.66075134 C53.45526638 54.44029488 53.44543642 58.21980021 53.43438721 61.99932861 C53.42417229 65.8533883 53.41959339 69.70745413 53.41455078 73.56152344 C53.40381411 81.12859818 53.38673815 88.6956414 53.36572266 96.26269531 C52.67778625 96.64653885 51.98984985 97.03038239 51.28106689 97.42585754 C33.12072199 107.55188038 33.12072199 107.55188038 15.11572266 117.95019531 C13.63072266 118.8193457 13.63072266 118.8193457 12.11572266 119.70605469 C6.90870127 122.71915371 6.90870127 122.71915371 1.87451172 126.00415039 C-0.63427734 127.26269531 -0.63427734 127.26269531 -3.13647461 127.10766602 C-5.8079743 126.20393613 -8.12919983 125.10580566 -10.59912109 123.74316406 C-11.55359131 123.22109375 -12.50806152 122.69902344 -13.49145508 122.16113281 C-14.50796143 121.59652344 -15.52446777 121.03191406 -16.57177734 120.45019531 C-17.62631104 119.87140625 -18.68084473 119.29261719 -19.76733398 118.69628906 C-21.96527044 117.48969458 -24.1617865 116.28050938 -26.35693359 115.06884766 C-30.47650058 112.79854398 -34.60793792 110.55045105 -38.73999023 108.30297852 C-41.42322318 106.84349781 -44.10553241 105.38236112 -46.78662109 103.91894531 C-47.50841553 103.52513672 -48.23020996 103.13132812 -48.97387695 102.72558594 C-52.86789288 100.5843596 -56.74961346 98.42084192 -60.63427734 96.26269531 C-60.63427734 74.81269531 -60.63427734 53.36269531 -60.63427734 31.26269531 C-48.75427734 24.82769531 -48.75427734 24.82769531 -36.63427734 18.26269531 C-32.5195312 15.96496954 -28.41201241 13.66469763 -24.32177734 11.32519531 C-21.64896875 9.80144462 -18.97541513 8.27989354 -16.29199219 6.77490234 C-14.41151613 5.70493461 -12.54868173 4.60368044 -10.69921875 3.48095703 C-9.7354834 2.9126416 -8.77174805 2.34432617 -7.77880859 1.75878906 C-6.91231689 1.23341553 -6.0458252 0.70804199 -5.15307617 0.16674805 C-2.63427734 -0.73730469 -2.63427734 -0.73730469 0 0 Z " fill="#222222" transform="translate(543.63427734375,476.7373046875)"/>
<path d="M0 0 C2.00701118 1.10087165 3.96890904 2.28570111 5.89453125 3.5234375 C7.0494053 4.25498395 8.20520244 4.98507475 9.36181641 5.71386719 C9.95915588 6.09184448 10.55649536 6.46982178 11.17193604 6.85925293 C14.16721318 8.72836347 17.21254331 10.50969501 20.26171875 12.2890625 C20.87089142 12.64538757 21.48006409 13.00171265 22.10769653 13.36883545 C23.9669056 14.4554716 25.82712149 15.54036744 27.6875 16.625 C29.5661174 17.72161153 31.4444674 18.81867696 33.32246399 19.91635132 C35.01744344 20.90686059 36.71316173 21.89610523 38.40893555 22.88525391 C38.95864517 23.22502258 39.5083548 23.56479126 40.07472229 23.91485596 C42.06958319 25.08998663 42.06958319 25.08998663 44.60777283 26.08074951 C47.57714514 27.45934591 49.68429563 28.67459007 52 31 C53.48795502 35.74777744 53.38674722 40.44695433 53.29296875 45.375 C53.2971707 46.78695907 53.30448973 48.19891197 53.31477356 49.61083984 C53.32497998 52.56398511 53.299728 55.51409104 53.2487793 58.46679688 C53.18618129 62.24140564 53.20862439 66.00977126 53.25730419 69.78439331 C53.28602616 72.69833376 53.27120799 75.61081949 53.24328041 78.52471924 C53.23479799 79.91528544 53.23926425 81.30599606 53.25722313 82.69647217 C53.35857546 93.5018371 53.35857546 93.5018371 50.06253052 97.13653564 C47.76274971 98.69556187 45.53331847 99.86892107 43 101 C41.58740921 101.79614456 40.18007315 102.60178191 38.78125 103.421875 C37.35601915 104.20131359 35.92887851 104.97726867 34.5 105.75 C29.04121343 108.73707726 23.6252515 111.77292855 18.28466797 114.96728516 C16.85129901 115.81862141 15.41016521 116.65702509 13.96142578 117.48193359 C10.77327719 119.29854881 7.9340396 121.05379124 5.078125 123.3828125 C1.80234365 125.79704442 0.090577 126.72244138 -4 127 C-11.14331467 124.81524468 -17.54517816 120.69989006 -23.89941406 116.86376953 C-27.9639415 114.42057249 -32.09430387 112.10421773 -36.23120117 109.78637695 C-38.13774879 108.71493782 -40.03937804 107.63467617 -41.93481445 106.54370117 C-46.67053496 103.82019649 -51.44336461 101.24213522 -56.3371582 98.81201172 C-57.93476738 98.01741043 -57.93476738 98.01741043 -59.56465149 97.20675659 C-60.3683165 96.80852692 -61.17198151 96.41029724 -62 96 C-62.27867411 87.6464644 -62.49155006 79.29488389 -62.62174606 70.93784237 C-62.68425467 67.05657714 -62.76892325 63.17850115 -62.90527344 59.29907227 C-63.03617254 55.55105709 -63.10750095 51.80609615 -63.13852692 48.05597115 C-63.1606162 46.62943963 -63.20376485 45.20306664 -63.26876068 43.77784538 C-63.46568621 39.27859505 -63.43717052 35.28904304 -62 31 C-58.38562609 27.64974753 -54.51120122 25.8842058 -50 24 C-48.1570642 23.00961221 -46.3230115 22.00225686 -44.50390625 20.96875 C-42.67049554 19.97689947 -40.83583276 18.98736029 -39 18 C-38.02659668 17.47535156 -37.05319336 16.95070313 -36.05029297 16.41015625 C-35.05271973 15.87261719 -34.05514648 15.33507812 -33.02734375 14.78125 C-32.02509766 14.24113281 -31.02285156 13.70101563 -29.99023438 13.14453125 C-27.95204985 12.04654573 -25.91298345 10.95019571 -23.87304688 9.85546875 C-22.87208984 9.31535156 -21.87113281 8.77523438 -20.83984375 8.21875 C-19.37393799 7.42791016 -19.37393799 7.42791016 -17.87841797 6.62109375 C-14.2327801 4.56791008 -10.73360106 2.31176451 -7.25610352 -0.01367188 C-4.29912494 -1.30641005 -3.04044138 -1.03397997 0 0 Z " fill="#222222" transform="translate(416,339)"/>
<path d="M0 0 C2.53271484 1.25585938 2.53271484 1.25585938 5.2109375 2.84375 C6.2011792 3.42624512 7.1914209 4.00874023 8.21166992 4.60888672 C9.77751831 5.54498779 9.77751831 5.54498779 11.375 6.5 C12.45048096 7.13566895 13.52596191 7.77133789 14.6340332 8.42626953 C17.76046262 10.27683039 20.88096765 12.13700619 24 14 C25.48557467 14.88298482 26.9712371 15.76582205 28.45703125 16.6484375 C34.83247234 20.44847502 34.83247234 20.44847502 36.92782593 21.78492737 C39.13488765 23.12199282 39.13488765 23.12199282 42.13394165 24.46690369 C51.2134713 29.12157299 51.2134713 29.12157299 53.29859924 34.10137939 C53.87234109 37.88982201 54.03739035 41.49229421 54.04296875 45.32421875 C54.07466569 46.71659484 54.1088363 48.10891657 54.14533997 49.50117493 C54.2049103 52.41337407 54.21335019 55.32049993 54.18920898 58.2331543 C54.17024719 61.2016924 54.23230638 64.1497932 54.3737793 67.11499023 C55.48736044 90.70302241 55.48736044 90.70302241 49.92700195 97.55426025 C44.73816957 101.87011304 38.9190462 104.51359227 32.6633606 106.93960571 C29.23414512 108.30491858 26.25785053 110.02904092 23.1015625 111.9375 C21.27739592 112.96075134 19.45195742 113.98173991 17.625 115 C15.76201453 116.03986585 13.90001479 117.08149992 12.0390625 118.125 C11.18086914 118.60324219 10.32267578 119.08148437 9.43847656 119.57421875 C7.11462738 120.93297719 4.92772088 122.41273948 2.7109375 123.9375 C0.19649307 125.49428608 -0.80668951 125.98958687 -3.828125 126.15234375 C-8.70135633 124.38189641 -13.18861025 122.01501387 -17.75 119.5625 C-18.76698975 119.02334961 -19.78397949 118.48419922 -20.83178711 117.92871094 C-34.70318201 110.54598717 -48.36351982 102.80465509 -62 95 C-62.39565726 86.82920523 -62.69673896 78.66246287 -62.88080692 70.48443031 C-62.9692101 66.68554025 -63.08876385 62.89323857 -63.2824707 59.09814453 C-64.49383471 34.723506 -64.49383471 34.723506 -60.47091675 28.71694946 C-56.58895535 25.14030598 -52.14223219 23.34151306 -47.17019653 21.73828125 C-44.1068611 20.69616222 -41.43751435 19.12796317 -38.65234375 17.49609375 C-36.74919752 16.47320325 -34.84426281 15.45363293 -32.9375 14.4375 C-24.44681087 9.90358112 -24.44681087 9.90358112 -16.0859375 5.13671875 C-15.35511963 4.70883057 -14.62430176 4.28094238 -13.87133789 3.84008789 C-12.54285173 3.05604003 -11.22109446 2.26042248 -9.90795898 1.45092773 C-6.06987656 -0.80579884 -4.23578026 -1.23427231 0 0 Z " fill="#222222" transform="translate(416,615)"/>
</svg>
